<?xml version="1.0" encoding="UTF-8" standalone="no"?>
<!-- Created with Inkscape (http://www.inkscape.org/) -->

<svg
   width="120"
   height="120"
   viewBox="0 0 120 120"
   version="1.1"
   id="svg1"
   xml:space="preserve"
   xmlns="http://www.w3.org/2000/svg"
   xmlns:svg="http://www.w3.org/2000/svg"><defs
     id="defs1" /><g
     id="layer1"><g
       style="fill:none;stroke:#ffffff;stroke-width:1.5;stroke-opacity:1"
       id="g2"
       transform="matrix(5.6230288,0,0,9.343799,-9.5194513,-59.751017)"><path
         stroke-linecap="round"
         stroke-linejoin="round"
         d="M 3,8.689 C 3,7.825 3.933,7.283 4.683,7.712 l 7.108,4.061 a 1.125,1.125 0 0 1 0,1.954 L 4.683,17.788 A 1.125,1.125 0 0 1 3,16.811 V 8.69 Z m 9.75,0 c 0,-0.864 0.933,-1.406 1.683,-0.977 l 7.108,4.061 a 1.125,1.125 0 0 1 0,1.954 l -7.108,4.061 A 1.125,1.125 0 0 1 12.75,16.811 V 8.69 Z"
         id="path1"
         style="stroke:#ffffff;stroke-opacity:1" /></g></g></svg>
