<?xml version="1.0" encoding="UTF-8" standalone="no"?>
<!-- Created with Inkscape (http://www.inkscape.org/) -->

<svg
   width="120"
   height="120"
   viewBox="0 0 120 120"
   version="1.1"
   id="svg1"
   xml:space="preserve"
   xmlns="http://www.w3.org/2000/svg"
   xmlns:svg="http://www.w3.org/2000/svg"><defs
     id="defs1" /><g
     id="layer1"><g
       style="fill:none;stroke:#ffffff;stroke-width:1.5;stroke-opacity:1"
       id="g2"
       transform="matrix(5.6859654,0,0,9.3451879,-5.2265275,-60.698518)"><path
         stroke-linecap="round"
         stroke-linejoin="round"
         d="m 21,16.811 c 0,0.864 -0.933,1.406 -1.683,0.977 l -7.108,-4.061 a 1.125,1.125 0 0 1 0,-1.954 L 19.317,7.712 A 1.125,1.125 0 0 1 21,8.689 Z m -9.75,0 c 0,0.864 -0.933,1.406 -1.683,0.977 L 2.459,13.727 a 1.125,1.125 0 0 1 0,-1.954 L 9.567,7.712 a 1.125,1.125 0 0 1 1.683,0.977 z"
         id="path1"
         style="stroke:#ffffff;stroke-opacity:1" /></g></g></svg>
