<?xml version="1.0" encoding="UTF-8" standalone="no"?>
<!-- Created with Inkscape (http://www.inkscape.org/) -->

<svg
   width="512"
   height="512"
   viewBox="0 0 512 512"
   version="1.1"
   id="svg1"
   xml:space="preserve"
   xmlns="http://www.w3.org/2000/svg"
   xmlns:svg="http://www.w3.org/2000/svg"><defs
     id="defs1" /><g
     id="layer1"><g
       style="fill:none;stroke:#ffffff;stroke-width:1.5;stroke-opacity:1"
       id="g1"
       transform="matrix(23.489191,0,0,26.50781,-21.527149,-60.77413)"><path
         stroke-linecap="round"
         stroke-linejoin="round"
         d="m 19.114,5.636 a 9,9 0 0 1 0,12.728 M 16.463,8.288 a 5.25,5.25 0 0 1 0,7.424 M 6.75,8.25 11.47,3.53 a 0.75,0.75 0 0 1 1.28,0.53 v 15.88 a 0.75,0.75 0 0 1 -1.28,0.53 L 6.75,15.75 H 4.51 c -0.88,0 -1.704,-0.507 -1.938,-1.354 A 9.009,9.009 0 0 1 2.25,12 C 2.25,11.17 2.362,10.367 2.572,9.604 2.806,8.756 3.63,8.25 4.51,8.25 Z"
         id="path1"
         style="stroke:#ffffff;stroke-opacity:1" /></g></g></svg>
