<?xml version="1.0" encoding="UTF-8" standalone="no"?>
<!-- Created with Inkscape (http://www.inkscape.org/) -->

<svg
   width="120"
   height="120"
   viewBox="0 0 120 120"
   version="1.1"
   id="svg1"
   xml:space="preserve"
   sodipodi:docname="empty_music.svg"
   inkscape:version="1.4 (e7c3feb100, 2024-10-09)"
   xmlns:inkscape="http://www.inkscape.org/namespaces/inkscape"
   xmlns:sodipodi="http://sodipodi.sourceforge.net/DTD/sodipodi-0.dtd"
   xmlns="http://www.w3.org/2000/svg"
   xmlns:svg="http://www.w3.org/2000/svg"><sodipodi:namedview
     id="namedview1"
     pagecolor="#ffffff"
     bordercolor="#000000"
     borderopacity="0.25"
     inkscape:showpageshadow="2"
     inkscape:pageopacity="0.0"
     inkscape:pagecheckerboard="0"
     inkscape:deskcolor="#d1d1d1"
     inkscape:zoom="6.2583333"
     inkscape:cx="60"
     inkscape:cy="60"
     inkscape:window-width="1678"
     inkscape:window-height="996"
     inkscape:window-x="0"
     inkscape:window-y="26"
     inkscape:window-maximized="1"
     inkscape:current-layer="svg1" /><defs
     id="defs1" /><g
     style="fill:none;fill-opacity:0;stroke:#ffffff;stroke-width:1.5;stroke-opacity:1"
     id="g1"
     transform="matrix(6.5591693,0,0,5.4086092,-15.549807,-5.2341604)"><path
       stroke-linecap="round"
       stroke-linejoin="round"
       d="M 9,9 19.5,6 m 0,6.553 v 3.75 a 2.25,2.25 0 0 1 -1.632,2.163 l -1.32,0.377 a 1.803,1.803 0 1 1 -0.99,-3.467 l 2.31,-0.66 A 2.25,2.25 0 0 0 19.5,12.553 Z m 0,0 V 2.25 L 9,5.25 v 10.303 m 0,0 v 3.75 a 2.25,2.25 0 0 1 -1.632,2.163 l -1.32,0.377 a 1.803,1.803 0 0 1 -0.99,-3.467 l 2.31,-0.66 A 2.25,2.25 0 0 0 9,15.553 Z"
       id="path1"
       style="fill:none;fill-opacity:0;stroke:#ffffff;stroke-opacity:1" /></g></svg>
